<svg xmlns="http://www.w3.org/2000/svg" viewBox="0 0 900 600"><path fill="#c60b1e" d="M0 0h900v600H0z"/><path fill="#ffc400" d="M0 150h900v300H0z"/><path fill="#c60b1e" d="M371 255h42v27h-42z"/><path fill="#ffc400" d="M374 258h36v21h-36z"/><path fill="#c60b1e" d="M371 282h12v15h-12zm30 0h12v15h-12z"/><path fill="none" stroke="#c60b1e" stroke-width="3" d="M401 282v15m-15-15h-3m21 0h-3"/><path d="M381 282h18v1.5h-18zm0 3h18v1.5h-18zm0 3h18v1.5h-18zm0 3h18v1.5h-18zm0 3h18v1.5h-18z"/><path fill="#c60b1e" d="M381 282h1.5v15h-1.5zm15 0h1.5v15h-1.5z"/><path fill="#c60b1e" d="M383 260h1v19h-1zm13 0h1v19h-1z"/><path fill="#c60b1e" d="M374 278h36v1h-36z"/><path fill="#c60b1e" d="M378 262h2v10h-2zm20 0h2v10h-2z"/><path fill="#c60b1e" d="M374 260h28v2h-28zm30 0h4v2h-4z"/><path fill="#fff" d="M391 262h2v4h-2zm0 6h2v4h-2z"/><path fill="#c60b1e" d="M392 262h1v12h-1z"/><path fill="#fff" d="M401 262a1 1 0 01-2 0h-1a2 2 0 104 0h-1z"/><circle cx="390" cy="273" r="1.5" fill="#c60b1e"/><path d="M386 312s-4-10-4-14c0-5 4-9 8-9s8 4 8 9c0 4-4 14-4 14a4 4 0 01-8 0z" fill="#0065a4"/><path d="M390 312s4-10 4-14c0-5-4-9-8-9s-8 4-8 9c0 4 4 14 4 14a4 4 0 008 0z" fill="#fff"/><circle cx="390" cy="296" r="3" fill="#98012e"/></svg>