<svg xmlns="http://www.w3.org/2000/svg" viewBox="0 0 1200 600"><path fill="#00247d" d="M0 0h1200v600H0z"/><path fill="#fff" d="M0 0l600 300M600 0l-600 300m0 0h1200v-300L0 300zM0 600l600-300L1200 600l-600-300z"/><path fill="#cf142b" d="M0 210h1200v180H0zm-150-90h1500v-60H-150zm600 390l-600-300h120L0 300z"/><path fill="#cf142b" d="M480 0v600h240V0zM0 0l600 300h-60L0 270zM1200 0L0 600h60l1140-540zM0 600l600-300h-60L0 330zm1200 0L0 0h-60L1140 60z"/><path fill="#fff" d="M0 0l1200 600M0 600L1200 0"/><path fill="#cf142b" d="M-75 0l1350 600h-90L-15 0zM-15 600L1275 0h90L75 600z"/></svg>